<?xml version="1.0" encoding="iso-8859-1"?>
<!-- Generator: Adobe Illustrator 19.0.0, SVG Export Plug-In . SVG Version: 6.00 Build 0)  -->
<svg version="1.1" id="Layer_1" xmlns="http://www.w3.org/2000/svg" xmlns:xlink="http://www.w3.org/1999/xlink" x="0px" y="0px"
	 viewBox="0 0 512 512" style="enable-background:new 0 0 512 512;" xml:space="preserve">
<g transform="translate(1 1)">
	<g>
		<g>
			<path fill="#108cff" d="M459.8,118.467H258.413L192.707,52.76c-1.707-1.707-3.413-2.56-5.973-2.56H50.2C22.04,50.2-1,73.24-1,101.4v307.2
				c0,28.16,23.04,51.2,51.2,51.2h409.6c28.16,0,51.2-23.04,51.2-51.2V169.667C511,141.507,487.96,118.467,459.8,118.467z
				 M493.933,408.6c0,18.773-15.36,34.133-34.133,34.133H50.2c-18.773,0-34.133-15.36-34.133-34.133V101.4
				c0-18.773,15.36-34.133,34.133-34.133h133.12l65.707,65.707c1.707,1.707,3.413,2.56,5.973,2.56h204.8
				c18.773,0,34.133,15.36,34.133,34.133V408.6z"/>
		</g>
	</g>
</g>
<g>
</g>
<g>
</g>
<g>
</g>
<g>
</g>
<g>
</g>
<g>
</g>
<g>
</g>
<g>
</g>
<g>
</g>
<g>
</g>
<g>
</g>
<g>
</g>
<g>
</g>
<g>
</g>
<g>
</g>
</svg>
