<svg id="svg" version="1.1" xmlns="http://www.w3.org/2000/svg" xmlns:xlink="http://www.w3.org/1999/xlink" width="400" height="400" viewBox="0, 0, 400,400"><g id="svgg"><path id="path0" d="M233.600 19.499 C 232.490 19.898,221.004 25.066,191.600 38.395 C 177.886 44.611,163.273 51.218,152.200 56.207 C 146.700 58.685,138.150 62.553,133.200 64.801 C 128.250 67.050,119.700 70.921,114.200 73.403 C 108.700 75.885,100.420 79.628,95.800 81.722 C 91.180 83.816,83.260 87.395,78.200 89.675 C 65.707 95.305,65.431 94.294,81.400 101.414 C 84.700 102.885,89.350 104.990,91.734 106.091 C 96.720 108.395,97.028 108.401,101.600 106.282 C 105.041 104.687,127.904 94.331,146.400 85.991 C 153.330 82.866,160.170 79.772,161.600 79.115 C 166.074 77.062,162.909 75.966,196.200 91.095 C 198.840 92.294,205.140 95.133,210.200 97.402 C 215.260 99.671,222.640 102.996,226.600 104.790 C 235.646 108.888,232.217 109.623,256.333 98.414 C 264.435 94.649,264.435 94.620,256.400 90.982 C 253.650 89.737,247.710 87.046,243.200 85.003 C 238.690 82.960,231.130 79.535,226.400 77.392 C 221.670 75.249,213.676 71.637,208.634 69.366 C 195.363 63.385,195.329 63.783,209.658 57.372 C 214.796 55.073,219.738 52.835,220.641 52.398 C 233.111 46.358,234.602 46.023,239.207 48.230 C 240.849 49.017,244.983 50.893,248.396 52.399 C 251.808 53.905,257.030 56.251,260.000 57.611 C 262.970 58.972,267.110 60.856,269.200 61.797 C 271.290 62.739,274.578 64.249,276.508 65.154 C 278.437 66.059,280.101 66.800,280.206 66.800 C 280.311 66.800,281.792 67.449,283.498 68.241 C 285.204 69.034,288.940 70.722,291.800 71.993 C 294.660 73.264,298.187 74.865,299.639 75.552 C 303.293 77.280,302.934 77.365,315.200 71.874 C 330.394 65.072,330.975 64.773,331.128 63.700 C 331.283 62.605,331.715 62.813,297.000 47.221 C 293.700 45.739,290.010 44.062,288.800 43.493 C 287.590 42.925,285.520 41.978,284.200 41.389 C 280.446 39.712,262.689 31.696,253.200 27.393 C 234.459 18.895,234.846 19.051,233.600 19.499 M239.600 22.409 C 241.470 23.242,246.960 25.718,251.800 27.912 C 256.640 30.106,264.290 33.561,268.800 35.591 C 273.310 37.620,278.680 40.072,280.732 41.040 C 282.785 42.008,284.585 42.801,284.732 42.802 C 284.880 42.804,285.511 43.072,286.136 43.398 C 286.761 43.723,288.917 44.731,290.927 45.636 C 295.864 47.859,297.027 48.387,302.600 50.934 C 305.240 52.141,309.020 53.843,311.000 54.718 C 320.792 59.040,328.245 62.497,329.064 63.096 C 330.059 63.824,329.382 64.360,325.000 66.313 C 323.020 67.195,317.555 69.646,312.856 71.759 C 303.473 75.977,303.101 76.059,300.028 74.577 C 298.071 73.633,291.834 70.809,282.400 66.597 C 280.310 65.664,274.550 63.061,269.600 60.813 C 264.650 58.565,257.180 55.195,253.000 53.324 C 248.820 51.453,243.295 48.950,240.723 47.761 C 233.890 44.604,237.388 43.648,209.200 56.368 C 193.808 63.313,193.767 63.877,208.200 70.347 C 213.040 72.517,220.825 76.027,225.500 78.146 C 247.260 88.012,251.289 89.837,255.400 91.688 C 262.753 95.000,264.006 93.792,243.477 103.178 C 233.956 107.531,235.199 107.487,226.938 103.764 C 223.232 102.094,215.070 98.426,208.800 95.612 C 202.530 92.798,196.140 89.912,194.600 89.198 C 188.758 86.489,182.090 83.461,179.200 82.204 C 177.550 81.487,174.760 80.227,173.000 79.404 C 165.258 75.784,166.776 75.630,154.200 81.313 C 143.475 86.161,134.531 90.190,127.200 93.478 C 124.010 94.909,120.050 96.713,118.400 97.489 C 116.750 98.264,114.050 99.489,112.400 100.210 C 110.750 100.932,106.970 102.643,104.000 104.013 C 96.157 107.632,98.842 108.129,79.800 99.534 C 68.189 94.293,68.274 95.252,79.000 90.492 C 82.960 88.734,87.370 86.748,88.800 86.078 C 91.756 84.693,105.633 78.397,117.200 73.192 C 121.490 71.261,129.050 67.844,134.000 65.597 C 138.950 63.351,147.545 59.462,153.100 56.956 C 168.341 50.081,182.202 43.819,194.200 38.388 C 200.140 35.700,207.970 32.162,211.600 30.527 C 215.230 28.892,219.370 27.002,220.800 26.329 C 223.735 24.946,232.684 21.003,233.600 20.689 C 234.529 20.370,235.911 20.767,239.600 22.409 M225.000 55.634 C 222.580 56.744,219.160 58.276,217.400 59.038 C 209.099 62.631,207.687 63.500,208.900 64.270 C 209.353 64.557,222.475 70.580,228.088 73.077 C 231.773 74.715,231.630 75.107,231.507 63.710 L 231.400 53.800 230.400 53.707 C 229.850 53.656,227.420 54.523,225.000 55.634 M323.400 73.461 C 309.354 79.712,309.773 79.058,317.600 82.527 C 320.350 83.746,324.994 85.836,327.919 87.172 C 335.569 90.664,334.833 91.513,334.707 79.333 C 334.640 72.927,334.450 69.022,334.200 68.949 C 333.980 68.885,329.120 70.915,323.400 73.461 M298.800 83.253 C 296.930 84.138,291.207 86.741,286.083 89.038 C 272.344 95.196,272.592 94.533,282.400 98.923 C 285.590 100.351,291.426 102.977,295.370 104.760 C 304.420 108.850,301.996 109.159,317.600 101.919 C 319.250 101.154,322.892 99.486,325.694 98.212 C 333.069 94.860,333.100 94.514,326.306 91.525 C 324.488 90.724,320.390 88.874,317.200 87.413 C 302.723 80.781,303.606 80.980,298.800 83.253 M309.265 84.998 C 311.539 86.034,316.820 88.410,321.000 90.279 C 331.518 94.981,331.295 94.462,324.200 97.714 C 321.560 98.924,316.024 101.463,311.898 103.357 C 302.541 107.651,304.223 107.764,291.800 102.008 C 287.492 100.012,284.655 98.731,281.400 97.311 C 275.470 94.724,275.133 95.112,288.568 89.063 C 293.865 86.677,299.100 84.293,300.200 83.765 C 302.841 82.496,304.168 82.677,309.265 84.998 M150.400 89.348 C 144.350 92.053,138.410 94.737,137.200 95.311 C 134.513 96.585,124.793 100.972,111.200 107.048 C 105.590 109.555,100.683 111.987,100.295 112.453 C 99.250 113.710,99.409 143.714,100.462 143.917 C 101.078 144.035,106.691 141.586,129.600 131.204 C 134.550 128.960,142.922 125.187,148.203 122.818 C 160.196 117.440,161.869 116.591,162.386 115.627 C 162.832 114.793,162.992 86.166,162.557 85.033 C 162.190 84.076,162.181 84.079,150.400 89.348 M254.400 104.585 C 240.807 110.664,241.384 110.196,245.300 111.959 C 246.675 112.577,248.970 113.631,250.400 114.299 C 258.641 118.150,264.983 120.816,265.463 120.631 C 266.319 120.303,266.062 100.252,265.200 100.117 C 264.870 100.065,260.010 102.076,254.400 104.585 M325.000 103.852 C 320.380 105.955,315.520 108.112,314.200 108.646 C 312.880 109.181,310.630 110.222,309.200 110.960 L 306.600 112.303 306.495 128.152 C 306.393 143.624,306.409 144.000,307.169 144.000 C 307.598 144.000,311.245 142.499,315.274 140.664 C 319.303 138.830,324.760 136.362,327.400 135.181 C 330.040 134.000,332.787 132.692,333.505 132.274 L 334.809 131.516 334.705 115.863 C 334.614 102.311,334.519 100.199,334.000 100.119 C 333.670 100.069,329.620 101.748,325.000 103.852 M228.600 115.123 C 225.740 116.417,218.180 119.825,211.800 122.695 C 168.744 142.065,171.897 140.571,172.078 141.510 C 172.252 142.413,174.054 143.375,183.200 147.446 C 187.490 149.356,192.710 151.721,194.800 152.702 C 199.873 155.084,200.246 155.057,207.400 151.822 C 210.700 150.330,217.270 147.353,222.000 145.208 C 242.510 135.905,251.316 131.931,256.000 129.863 C 258.750 128.648,261.449 127.256,261.999 126.770 L 262.998 125.885 261.941 125.096 C 261.360 124.662,256.681 122.427,251.542 120.130 C 246.404 117.833,240.850 115.315,239.200 114.536 C 234.729 112.423,234.545 112.433,228.600 115.123 M244.126 117.968 C 257.461 123.929,260.800 125.534,260.800 125.977 C 260.800 126.521,260.064 126.881,246.443 133.000 C 239.929 135.925,230.550 140.156,225.600 142.402 C 197.025 155.364,200.608 154.239,195.524 151.850 C 193.476 150.888,188.650 148.706,184.800 147.002 C 175.660 142.957,173.918 142.058,174.089 141.480 C 174.299 140.770,181.359 137.474,212.400 123.590 C 218.230 120.983,225.340 117.769,228.200 116.449 C 234.777 113.414,233.717 113.313,244.126 117.968 M259.000 133.644 C 256.140 134.969,250.470 137.554,246.400 139.388 C 242.330 141.222,236.030 144.067,232.400 145.710 C 228.770 147.354,224.720 149.187,223.400 149.784 C 222.080 150.381,219.290 151.650,217.200 152.604 C 215.110 153.558,211.240 155.308,208.600 156.494 C 205.182 158.029,203.658 158.930,203.306 159.625 C 202.786 160.651,202.556 188.050,203.052 189.900 C 203.395 191.181,203.696 191.106,210.487 188.044 C 213.849 186.529,222.000 182.859,228.600 179.889 C 235.200 176.918,243.570 173.136,247.200 171.483 C 250.830 169.829,256.220 167.376,259.177 166.030 C 266.869 162.531,266.027 164.932,265.905 146.834 C 265.781 128.607,266.579 130.132,259.000 133.644 M222.400 254.646 C 218.770 256.302,214.360 258.284,212.600 259.049 C 210.840 259.815,208.680 260.782,207.800 261.199 C 205.874 262.112,200.087 264.734,184.400 271.803 C 177.910 274.727,168.550 278.958,163.600 281.205 C 158.650 283.451,150.280 287.227,145.000 289.595 C 139.720 291.964,134.140 294.483,132.600 295.195 C 131.060 295.906,125.210 298.557,119.600 301.086 C 87.028 315.769,74.316 321.551,74.076 321.791 C 73.574 322.293,75.273 323.282,81.200 325.939 C 84.610 327.468,89.200 329.544,91.400 330.553 C 96.788 333.024,96.832 333.019,105.800 328.964 C 125.003 320.282,129.719 318.147,134.200 316.110 C 136.840 314.910,140.350 313.336,142.000 312.611 C 143.650 311.887,146.530 310.573,148.400 309.692 C 159.155 304.624,164.881 302.309,166.152 302.515 C 167.305 302.702,171.909 304.682,184.000 310.191 C 198.971 317.013,198.881 316.978,199.460 316.185 C 200.665 314.538,200.154 312.476,198.035 310.434 C 195.592 308.079,195.489 307.516,195.667 297.512 C 195.822 288.799,195.919 288.546,199.818 286.628 C 202.685 285.217,214.045 280.040,225.000 275.151 C 234.217 271.038,234.551 270.763,234.314 267.488 C 234.158 265.321,234.023 265.053,232.273 263.447 L 230.400 261.727 230.395 257.564 C 230.385 250.476,231.025 250.709,222.400 254.646 M293.600 315.786 C 291.070 316.942,287.237 318.669,285.083 319.624 C 280.832 321.508,280.096 322.050,280.895 322.712 C 281.760 323.427,301.233 332.000,301.994 332.000 C 304.087 332.000,303.650 328.275,301.300 326.088 L 299.400 324.319 299.268 319.382 C 299.099 313.084,299.273 313.194,293.600 315.786 M217.000 350.418 C 210.620 353.268,204.495 356.036,203.389 356.569 C 202.284 357.101,199.764 358.252,197.789 359.126 C 195.815 360.000,192.940 361.304,191.400 362.024 C 189.860 362.744,186.080 364.457,183.000 365.830 C 179.920 367.203,177.400 368.561,177.400 368.849 C 177.400 369.144,182.097 371.524,188.200 374.321 C 200.952 380.165,199.725 380.041,207.800 376.300 C 210.880 374.873,215.290 372.855,217.600 371.815 C 233.021 364.873,233.707 364.500,234.124 362.817 C 234.727 360.377,234.139 358.151,232.647 357.229 C 230.790 356.081,230.400 354.898,230.400 350.414 C 230.400 343.903,231.585 343.902,217.000 350.418 " stroke="none" fill="#5c7ca4" fill-rule="evenodd"></path><path id="path1" d="M233.600 20.689 C 232.684 21.003,223.735 24.946,220.800 26.329 C 219.370 27.002,215.230 28.892,211.600 30.527 C 207.970 32.162,200.140 35.700,194.200 38.388 C 182.202 43.819,168.341 50.081,153.100 56.956 C 147.545 59.462,138.950 63.351,134.000 65.597 C 129.050 67.844,121.490 71.261,117.200 73.192 C 105.633 78.397,91.756 84.693,88.800 86.078 C 87.370 86.748,82.960 88.734,79.000 90.492 C 69.416 94.745,69.364 94.799,73.100 96.500 C 93.022 105.572,96.127 106.874,97.385 106.686 C 98.053 106.586,101.030 105.383,104.000 104.013 C 106.970 102.643,110.750 100.932,112.400 100.210 C 114.050 99.489,116.750 98.264,118.400 97.489 C 120.050 96.713,124.010 94.909,127.200 93.478 C 134.531 90.190,143.475 86.161,154.200 81.313 C 166.776 75.630,165.258 75.784,173.000 79.404 C 174.760 80.227,177.550 81.487,179.200 82.204 C 182.090 83.461,188.758 86.489,194.600 89.198 C 196.140 89.912,202.530 92.798,208.800 95.612 C 215.070 98.426,223.232 102.094,226.938 103.764 C 235.199 107.487,233.956 107.531,243.477 103.178 C 264.006 93.792,262.753 95.000,255.400 91.688 C 251.289 89.837,247.260 88.012,225.500 78.146 C 220.825 76.027,213.040 72.517,208.200 70.347 C 193.767 63.877,193.808 63.313,209.200 56.368 C 237.388 43.648,233.890 44.604,240.723 47.761 C 243.295 48.950,248.820 51.453,253.000 53.324 C 257.180 55.195,264.650 58.565,269.600 60.813 C 274.550 63.061,280.310 65.664,282.400 66.597 C 291.834 70.809,298.071 73.633,300.028 74.577 C 303.101 76.059,303.473 75.977,312.856 71.759 C 317.555 69.646,323.020 67.195,325.000 66.313 C 329.382 64.360,330.059 63.824,329.064 63.096 C 328.245 62.497,320.792 59.040,311.000 54.718 C 309.020 53.843,305.240 52.141,302.600 50.934 C 297.027 48.387,295.864 47.859,290.927 45.636 C 288.917 44.731,286.761 43.723,286.136 43.398 C 285.511 43.072,284.880 42.804,284.732 42.802 C 284.585 42.801,282.785 42.008,280.732 41.040 C 278.680 40.072,273.310 37.620,268.800 35.591 C 264.290 33.561,256.640 30.106,251.800 27.912 C 234.976 20.286,234.882 20.249,233.600 20.689 M300.200 83.765 C 299.100 84.293,293.865 86.677,288.568 89.063 C 275.133 95.112,275.470 94.724,281.400 97.311 C 284.655 98.731,287.492 100.012,291.800 102.008 C 304.223 107.764,302.541 107.651,311.898 103.357 C 316.024 101.463,321.560 98.924,324.200 97.714 C 331.295 94.462,331.518 94.981,321.000 90.279 C 316.820 88.410,311.539 86.034,309.265 84.998 C 304.168 82.677,302.841 82.496,300.200 83.765 M228.200 116.449 C 225.340 117.769,218.230 120.983,212.400 123.590 C 181.359 137.474,174.299 140.770,174.089 141.480 C 173.918 142.058,175.660 142.957,184.800 147.002 C 188.650 148.706,193.476 150.888,195.524 151.850 C 200.608 154.239,197.025 155.364,225.600 142.402 C 230.550 140.156,239.929 135.925,246.443 133.000 C 260.064 126.881,260.800 126.521,260.800 125.977 C 260.800 125.534,257.461 123.929,244.126 117.968 C 233.717 113.313,234.777 113.414,228.200 116.449 " stroke="none" fill="#c2d2e2" fill-rule="evenodd"></path><path id="path2" d="M233.600 18.691 C 232.927 18.924,200.099 33.731,184.800 40.702 C 181.170 42.356,175.590 44.870,172.400 46.289 C 169.210 47.707,164.710 49.738,162.400 50.802 C 160.090 51.866,151.540 55.740,143.400 59.411 C 135.260 63.083,126.530 67.040,124.000 68.204 C 121.470 69.369,115.980 71.851,111.800 73.719 C 107.620 75.588,99.970 79.044,94.800 81.399 C 89.630 83.755,81.800 87.293,77.400 89.263 C 64.223 95.160,64.156 94.451,78.490 100.869 C 83.391 103.063,89.200 105.696,91.400 106.722 C 96.692 109.187,97.163 109.155,104.400 105.813 C 107.590 104.340,113.530 101.642,117.600 99.817 C 121.670 97.992,126.170 95.946,127.600 95.271 C 129.030 94.596,134.790 91.988,140.400 89.475 C 146.010 86.962,153.910 83.416,157.956 81.595 L 165.312 78.283 167.156 78.905 C 168.170 79.247,174.220 81.900,180.600 84.800 C 186.980 87.701,195.530 91.566,199.600 93.389 C 203.670 95.213,208.170 97.252,209.600 97.922 C 223.135 104.256,233.153 108.495,234.600 108.498 C 236.165 108.501,238.162 107.644,257.000 98.890 C 266.913 94.283,267.847 95.384,245.400 85.211 C 241.440 83.416,237.390 81.574,236.400 81.118 C 233.732 79.888,218.916 73.212,210.000 69.222 C 199.924 64.713,199.600 64.538,199.600 63.604 C 199.600 62.616,199.381 62.731,212.400 56.875 C 218.450 54.154,225.792 50.851,228.716 49.535 C 234.579 46.898,234.943 46.864,238.453 48.632 C 239.472 49.146,243.702 51.081,247.853 52.933 C 252.004 54.786,256.435 56.773,257.700 57.350 C 258.965 57.928,261.035 58.872,262.300 59.450 C 271.340 63.577,275.538 65.476,285.600 69.990 C 291.870 72.803,298.080 75.610,299.400 76.228 C 303.146 77.981,303.413 77.920,315.607 72.465 C 332.391 64.958,332.897 64.672,332.268 63.033 C 331.948 62.200,329.767 61.174,297.756 46.792 C 294.431 45.298,290.741 43.624,289.556 43.073 C 286.883 41.828,280.413 38.900,272.800 35.489 C 269.610 34.060,265.740 32.306,264.200 31.592 C 262.660 30.877,257.890 28.715,253.600 26.786 C 249.310 24.858,243.640 22.301,241.000 21.104 C 235.904 18.795,234.563 18.357,233.600 18.691 M240.400 21.603 C 242.710 22.643,248.470 25.248,253.200 27.393 C 262.689 31.696,280.446 39.712,284.200 41.389 C 285.520 41.978,287.590 42.925,288.800 43.493 C 290.010 44.062,293.700 45.739,297.000 47.221 C 331.715 62.813,331.283 62.605,331.128 63.700 C 330.975 64.773,330.394 65.072,315.200 71.874 C 302.934 77.365,303.293 77.280,299.639 75.552 C 298.187 74.865,294.660 73.264,291.800 71.993 C 288.940 70.722,285.204 69.034,283.498 68.241 C 281.792 67.449,280.311 66.800,280.206 66.800 C 280.101 66.800,278.437 66.059,276.508 65.154 C 274.578 64.249,271.290 62.739,269.200 61.797 C 267.110 60.856,262.970 58.972,260.000 57.611 C 257.030 56.251,251.808 53.905,248.396 52.399 C 244.983 50.893,240.849 49.017,239.207 48.230 C 234.602 46.023,233.111 46.358,220.641 52.398 C 219.738 52.835,214.796 55.073,209.658 57.372 C 200.215 61.597,198.795 62.407,198.806 63.562 C 198.818 64.831,199.611 65.299,208.634 69.366 C 213.676 71.637,221.670 75.249,226.400 77.392 C 231.130 79.535,238.690 82.960,243.200 85.003 C 247.710 87.046,253.650 89.737,256.400 90.982 C 264.435 94.620,264.435 94.649,256.333 98.414 C 232.217 109.623,235.646 108.888,226.600 104.790 C 222.640 102.996,215.260 99.671,210.200 97.402 C 205.140 95.133,198.840 92.294,196.200 91.095 C 162.909 75.966,166.074 77.062,161.600 79.115 C 160.170 79.772,153.330 82.866,146.400 85.991 C 127.904 94.331,105.041 104.687,101.600 106.282 C 97.028 108.401,96.720 108.395,91.734 106.091 C 89.350 104.990,84.700 102.885,81.400 101.414 C 65.431 94.294,65.707 95.305,78.200 89.675 C 83.260 87.395,91.180 83.816,95.800 81.722 C 100.420 79.628,108.700 75.885,114.200 73.403 C 119.700 70.921,128.250 67.050,133.200 64.801 C 138.150 62.553,146.700 58.685,152.200 56.207 C 163.273 51.218,177.886 44.611,191.600 38.395 C 221.004 25.066,232.490 19.898,233.600 19.499 C 234.547 19.158,235.898 19.577,240.400 21.603 M228.000 52.677 C 226.790 53.244,223.010 54.957,219.600 56.485 C 203.217 63.826,203.430 63.576,210.800 66.796 C 214.226 68.292,216.419 69.291,224.000 72.806 C 227.548 74.452,229.949 75.326,231.000 75.355 L 232.600 75.400 232.600 63.600 L 232.600 51.800 231.400 51.724 C 230.740 51.682,229.210 52.111,228.000 52.677 M236.880 52.480 C 235.848 53.512,236.235 76.908,237.300 77.895 C 237.997 78.541,249.132 84.000,249.754 84.000 C 249.828 84.000,253.829 85.821,258.645 88.047 C 264.456 90.734,267.871 92.095,268.800 92.096 C 270.043 92.097,278.813 88.373,292.802 81.905 C 298.492 79.275,298.506 79.296,287.800 74.409 C 283.400 72.400,278.270 70.056,276.400 69.199 C 274.530 68.343,271.560 67.016,269.800 66.252 C 268.040 65.488,263.990 63.656,260.800 62.182 C 257.610 60.709,253.470 58.824,251.600 57.995 C 249.730 57.166,245.980 55.478,243.267 54.244 C 237.990 51.843,237.619 51.741,236.880 52.480 M231.507 63.710 C 231.630 75.107,231.773 74.715,228.088 73.077 C 222.475 70.580,209.353 64.557,208.900 64.270 C 207.687 63.500,209.099 62.631,217.400 59.038 C 219.160 58.276,222.580 56.744,225.000 55.634 C 227.420 54.523,229.850 53.656,230.400 53.707 L 231.400 53.800 231.507 63.710 M332.800 67.690 C 332.250 67.940,330.450 68.762,328.800 69.518 C 327.150 70.273,322.560 72.328,318.600 74.084 C 306.583 79.413,306.639 79.254,315.450 83.150 C 317.843 84.208,323.120 86.564,327.178 88.385 C 336.980 92.786,336.305 93.464,336.305 79.200 C 336.305 66.813,336.114 66.185,332.800 67.690 M334.707 79.333 C 334.833 91.513,335.569 90.664,327.919 87.172 C 324.994 85.836,320.350 83.746,317.600 82.527 C 311.726 79.924,311.282 79.605,312.288 78.718 C 313.195 77.918,333.664 68.792,334.200 68.949 C 334.450 69.022,334.640 72.927,334.707 79.333 M298.200 82.781 C 282.057 89.982,274.623 93.488,274.256 94.077 C 273.356 95.518,274.458 96.190,286.800 101.720 C 289.990 103.149,294.670 105.259,297.200 106.409 C 303.791 109.404,303.050 109.536,317.400 102.819 C 319.160 101.996,322.940 100.287,325.800 99.022 C 333.467 95.631,334.167 94.494,329.859 92.433 C 318.887 87.184,304.327 80.797,303.359 80.809 C 302.941 80.815,300.620 81.702,298.200 82.781 M307.720 83.178 C 309.744 84.046,314.010 85.951,317.200 87.413 C 320.390 88.874,324.488 90.724,326.306 91.525 C 333.100 94.514,333.069 94.860,325.694 98.212 C 322.892 99.486,319.250 101.154,317.600 101.919 C 301.996 109.159,304.420 108.850,295.370 104.760 C 291.426 102.977,285.590 100.351,282.400 98.923 C 272.592 94.533,272.344 95.196,286.083 89.038 C 291.207 86.741,296.930 84.138,298.800 83.253 C 303.031 81.252,303.226 81.251,307.720 83.178 M159.400 83.671 C 158.520 84.142,153.480 86.462,148.200 88.828 C 142.920 91.194,134.370 95.051,129.200 97.400 C 124.030 99.749,115.390 103.645,110.001 106.059 C 104.611 108.472,99.796 110.828,99.301 111.293 L 98.400 112.139 98.400 128.441 C 98.400 148.161,98.036 147.038,103.600 144.504 C 104.810 143.953,109.310 141.923,113.600 139.993 C 117.890 138.062,125.630 134.560,130.800 132.209 C 135.970 129.858,144.430 126.042,149.600 123.730 C 161.376 118.463,163.558 117.314,163.819 116.240 C 163.931 115.778,163.972 108.110,163.911 99.200 L 163.800 83.000 162.400 82.908 C 161.577 82.853,160.340 83.168,159.400 83.671 M167.783 83.701 C 167.677 83.976,167.638 91.491,167.695 100.401 L 167.800 116.600 171.000 118.219 C 174.229 119.852,184.335 124.513,188.400 126.244 C 191.898 127.734,190.049 128.393,218.135 115.647 C 230.581 109.999,230.424 110.753,220.134 106.028 C 211.563 102.093,210.210 101.480,201.855 97.737 C 197.706 95.878,193.206 93.840,191.855 93.209 C 190.505 92.578,186.430 90.715,182.800 89.069 C 179.170 87.423,174.795 85.429,173.078 84.638 C 169.839 83.146,168.113 82.841,167.783 83.701 M162.557 85.033 C 162.992 86.166,162.832 114.793,162.386 115.627 C 161.869 116.591,160.196 117.440,148.203 122.818 C 142.922 125.187,134.550 128.960,129.600 131.204 C 106.691 141.586,101.078 144.035,100.462 143.917 C 99.409 143.714,99.250 113.710,100.295 112.453 C 100.683 111.987,105.590 109.555,111.200 107.048 C 124.793 100.972,134.513 96.585,137.200 95.311 C 142.486 92.804,161.442 84.427,161.857 84.414 C 162.109 84.406,162.424 84.685,162.557 85.033 M253.600 103.392 C 237.469 110.662,237.856 110.210,245.000 113.427 C 267.050 123.356,266.592 123.188,267.005 121.500 C 267.126 121.005,267.174 115.650,267.112 109.600 L 267.000 98.600 265.800 98.518 C 264.997 98.462,260.960 100.076,253.600 103.392 M324.600 102.454 C 319.760 104.663,314.727 106.922,313.415 107.473 C 309.078 109.296,305.637 111.183,305.216 111.971 C 304.697 112.940,304.652 144.347,305.168 145.162 C 305.829 146.205,307.790 145.670,314.207 142.694 C 317.723 141.063,323.390 138.494,326.800 136.987 C 335.087 133.322,335.822 132.846,336.138 130.931 C 336.464 128.960,336.387 101.383,336.051 99.800 C 335.611 97.725,334.289 98.031,324.600 102.454 M64.667 99.067 C 63.964 99.770,64.381 131.859,65.101 132.511 C 65.726 133.076,72.436 136.207,83.000 140.864 C 84.980 141.737,87.926 143.079,89.546 143.847 C 91.212 144.637,92.951 145.191,93.546 145.122 L 94.600 145.000 94.704 128.782 C 94.785 116.226,94.695 112.411,94.304 111.883 C 93.880 111.310,78.371 103.967,69.122 99.960 C 66.468 98.810,65.181 98.552,64.667 99.067 M271.280 99.280 C 270.923 99.637,270.800 103.835,270.800 115.699 L 270.800 131.638 271.766 132.519 C 272.297 133.004,276.752 135.183,281.666 137.362 C 286.580 139.541,292.488 142.204,294.796 143.279 C 297.184 144.392,299.424 145.184,299.996 145.117 L 301.000 145.000 301.104 128.508 L 301.209 112.016 299.704 111.068 C 298.877 110.547,295.950 109.118,293.200 107.892 C 290.450 106.666,285.950 104.642,283.200 103.394 C 272.350 98.472,272.155 98.405,271.280 99.280 M265.907 110.315 C 265.994 118.595,265.914 120.458,265.463 120.631 C 264.983 120.816,258.641 118.150,250.400 114.299 C 248.970 113.631,246.675 112.577,245.300 111.959 C 242.694 110.786,242.325 110.298,243.500 109.577 C 245.265 108.492,264.667 100.034,265.200 100.117 C 265.712 100.197,265.816 101.697,265.907 110.315 M334.705 115.863 L 334.809 131.516 333.505 132.274 C 332.787 132.692,330.040 134.000,327.400 135.181 C 324.760 136.362,319.303 138.830,315.274 140.664 C 311.245 142.499,307.598 144.000,307.169 144.000 C 306.409 144.000,306.393 143.624,306.495 128.152 L 306.600 112.303 309.200 110.960 C 310.630 110.222,312.880 109.181,314.200 108.646 C 315.520 108.112,320.380 105.955,325.000 103.852 C 329.620 101.748,333.670 100.069,334.000 100.119 C 334.519 100.199,334.614 102.311,334.705 115.863 M228.600 114.349 C 225.740 115.636,218.000 119.123,211.400 122.098 C 204.800 125.073,194.090 129.888,187.600 132.798 C 173.558 139.095,171.236 140.241,170.937 141.020 C 170.428 142.346,171.888 143.200,183.474 148.357 C 187.393 150.101,192.368 152.354,194.528 153.364 C 200.603 156.203,197.013 157.326,230.800 142.020 C 238.170 138.681,248.070 134.219,252.800 132.103 C 267.109 125.704,267.128 126.286,252.400 119.684 C 247.450 117.465,241.600 114.830,239.400 113.827 C 234.425 111.560,234.844 111.539,228.600 114.349 M239.200 114.536 C 240.850 115.315,246.404 117.833,251.542 120.130 C 256.681 122.427,261.360 124.662,261.941 125.096 L 262.998 125.885 261.999 126.770 C 261.449 127.256,258.750 128.648,256.000 129.863 C 251.316 131.931,242.510 135.905,222.000 145.208 C 197.806 156.181,200.582 155.416,194.800 152.702 C 192.710 151.721,187.490 149.356,183.200 147.446 C 174.054 143.375,172.252 142.413,172.078 141.510 C 171.897 140.571,168.744 142.065,211.800 122.695 C 218.180 119.825,225.740 116.417,228.600 115.123 C 234.545 112.433,234.729 112.423,239.200 114.536 M258.600 132.254 C 255.520 133.689,249.670 136.366,245.600 138.201 C 241.530 140.037,234.960 143.014,231.000 144.817 C 227.040 146.619,222.270 148.773,220.400 149.602 C 208.396 154.927,203.298 157.344,202.505 158.090 L 201.600 158.939 201.600 175.190 C 201.600 192.348,201.606 192.400,203.443 192.400 C 203.929 192.400,207.538 190.942,211.463 189.160 C 215.389 187.379,223.910 183.535,230.400 180.619 C 257.346 168.513,265.802 164.598,266.486 163.914 C 267.163 163.237,267.202 162.141,267.104 146.496 L 267.000 129.800 265.600 129.722 C 264.603 129.666,262.587 130.396,258.600 132.254 M265.905 146.834 C 266.027 164.932,266.869 162.531,259.177 166.030 C 256.220 167.376,250.830 169.829,247.200 171.483 C 243.570 173.136,235.200 176.918,228.600 179.889 C 222.000 182.859,213.849 186.529,210.487 188.044 C 203.696 191.106,203.395 191.181,203.052 189.900 C 202.556 188.050,202.786 160.651,203.306 159.625 C 203.658 158.930,205.182 158.029,208.600 156.494 C 211.240 155.308,215.110 153.558,217.200 152.604 C 219.290 151.650,222.080 150.381,223.400 149.784 C 224.720 149.187,228.770 147.354,232.400 145.710 C 236.030 144.067,242.330 141.222,246.400 139.388 C 250.470 137.554,256.140 134.969,259.000 133.644 C 266.579 130.132,265.781 128.607,265.905 146.834 M167.867 145.867 C 167.440 146.293,167.551 177.962,167.982 178.767 C 168.197 179.168,172.368 181.285,177.482 183.588 C 182.497 185.847,188.570 188.595,190.977 189.697 C 193.385 190.798,195.905 191.722,196.577 191.749 L 197.800 191.800 197.904 175.366 C 198.026 156.238,198.713 158.612,192.200 155.671 C 189.780 154.579,186.540 153.106,185.000 152.398 C 171.057 145.990,168.658 145.075,167.867 145.867 M223.800 252.418 C 220.940 253.713,217.250 255.392,215.600 256.149 C 213.950 256.906,208.730 259.273,204.000 261.410 C 199.270 263.546,189.820 267.818,183.000 270.903 C 176.180 273.987,168.710 277.363,166.400 278.405 C 164.090 279.446,159.410 281.558,156.000 283.097 C 152.590 284.637,145.390 287.881,140.000 290.308 C 134.610 292.734,128.940 295.298,127.400 296.005 C 124.129 297.507,110.965 303.453,100.400 308.200 C 96.330 310.029,91.380 312.276,89.400 313.194 C 87.420 314.112,82.920 316.133,79.400 317.685 C 72.382 320.779,71.151 321.597,71.847 322.706 C 72.468 323.693,95.090 333.959,96.695 333.982 C 97.979 334.000,102.112 332.232,122.400 322.989 C 127.570 320.634,133.150 318.115,134.800 317.391 C 136.450 316.667,140.230 314.959,143.200 313.597 C 158.741 306.468,164.502 304.000,165.599 304.000 C 166.693 304.000,172.272 306.334,181.826 310.790 C 183.726 311.675,185.351 312.400,185.438 312.400 C 185.525 312.400,186.992 313.049,188.698 313.842 C 193.999 316.307,198.532 318.262,200.200 318.801 C 201.080 319.086,204.140 320.383,207.000 321.683 C 224.114 329.467,233.681 333.600,234.588 333.600 C 235.156 333.600,238.451 332.317,241.910 330.750 C 245.370 329.182,250.360 326.922,253.000 325.726 C 258.209 323.366,259.038 322.796,258.665 321.826 C 258.401 321.136,257.859 320.875,240.600 313.104 C 228.691 307.742,220.243 303.920,210.840 299.640 C 203.224 296.173,203.200 296.184,203.200 303.151 C 203.200 308.555,202.476 309.928,199.882 309.442 C 197.327 308.963,197.200 308.467,197.200 299.000 C 197.200 289.068,197.081 289.387,201.544 287.333 C 208.020 284.352,226.766 275.838,230.118 274.356 C 235.512 271.970,233.104 271.291,256.200 281.717 C 260.820 283.802,268.830 287.440,274.000 289.802 C 279.170 292.163,284.840 294.723,286.600 295.490 C 288.360 296.258,291.150 297.513,292.800 298.279 C 294.450 299.045,297.493 300.397,299.561 301.284 L 303.323 302.896 305.561 301.985 C 306.793 301.484,310.454 299.842,313.699 298.337 C 316.943 296.832,319.687 295.600,319.796 295.600 C 320.819 295.600,327.600 291.776,327.600 291.199 C 327.600 290.061,329.015 290.783,310.000 282.220 C 305.490 280.189,300.540 277.940,299.000 277.223 C 297.460 276.505,292.870 274.423,288.800 272.595 C 284.730 270.767,276.360 266.986,270.200 264.194 C 264.040 261.402,255.475 257.535,251.166 255.600 C 246.857 253.666,242.589 251.705,241.682 251.242 C 238.186 249.458,237.600 250.247,237.600 256.737 C 237.600 261.811,237.169 262.800,234.959 262.800 C 232.220 262.800,231.600 261.581,231.600 256.192 C 231.600 248.967,231.514 248.926,223.800 252.418 M230.148 252.500 C 230.281 252.995,230.392 255.274,230.395 257.564 L 230.400 261.727 232.273 263.447 C 234.023 265.053,234.158 265.321,234.314 267.488 C 234.551 270.763,234.217 271.038,225.000 275.151 C 214.045 280.040,202.685 285.217,199.818 286.628 C 195.919 288.546,195.822 288.799,195.667 297.512 C 195.489 307.516,195.592 308.079,198.035 310.434 C 200.154 312.476,200.665 314.538,199.460 316.185 C 198.881 316.978,198.971 317.013,184.000 310.191 C 171.909 304.682,167.305 302.702,166.152 302.515 C 164.881 302.309,159.155 304.624,148.400 309.692 C 146.530 310.573,143.650 311.887,142.000 312.611 C 140.350 313.336,136.840 314.910,134.200 316.110 C 131.560 317.310,125.800 319.920,121.400 321.910 C 94.092 334.259,97.403 333.306,91.400 330.553 C 89.200 329.544,84.610 327.468,81.200 325.939 C 75.273 323.282,73.574 322.293,74.076 321.791 C 74.316 321.551,87.028 315.769,119.600 301.086 C 125.210 298.557,131.060 295.906,132.600 295.195 C 134.140 294.483,139.720 291.964,145.000 289.595 C 150.280 287.227,158.650 283.451,163.600 281.205 C 168.550 278.958,177.910 274.727,184.400 271.803 C 200.087 264.734,205.874 262.112,207.800 261.199 C 208.680 260.782,210.840 259.815,212.600 259.049 C 214.360 258.284,218.770 256.302,222.400 254.646 C 229.819 251.260,229.816 251.261,230.148 252.500 M294.600 313.812 C 292.400 314.807,288.090 316.731,285.023 318.087 C 278.898 320.796,277.756 321.596,278.371 322.746 C 278.760 323.473,301.716 334.000,302.913 334.000 C 303.463 334.000,314.532 329.149,323.900 324.803 C 329.606 322.155,329.769 322.365,317.708 316.826 C 306.155 311.520,306.540 311.429,306.447 319.500 C 306.385 324.911,305.216 326.263,302.029 324.615 C 300.502 323.826,300.400 323.426,300.400 318.256 C 300.400 311.365,300.257 311.255,294.600 313.812 M299.268 319.382 L 299.400 324.319 301.300 326.088 C 303.650 328.275,304.087 332.000,301.994 332.000 C 301.233 332.000,281.760 323.427,280.895 322.712 C 280.096 322.050,280.832 321.508,285.083 319.624 C 287.237 318.669,291.070 316.942,293.600 315.786 C 299.273 313.194,299.099 313.084,299.268 319.382 M229.200 343.483 C 228.870 343.603,227.610 344.150,226.400 344.697 C 225.190 345.245,219.070 347.994,212.800 350.806 C 206.530 353.619,197.350 357.760,192.400 360.010 C 187.450 362.259,181.699 364.861,179.621 365.792 C 175.559 367.611,174.449 368.609,175.301 369.673 C 175.967 370.506,198.898 380.801,200.076 380.797 C 200.986 380.793,204.948 379.130,214.800 374.617 C 217.550 373.357,221.060 371.783,222.600 371.119 C 224.140 370.455,228.820 368.242,233.000 366.203 C 240.233 362.674,242.524 361.607,253.200 356.798 C 261.241 353.176,261.550 353.577,245.003 346.152 C 237.837 342.937,237.600 343.066,237.600 350.172 C 237.600 356.133,235.681 358.142,232.769 355.231 C 231.614 354.076,231.600 354.006,231.600 349.520 C 231.600 344.116,231.076 342.797,229.200 343.483 M230.157 345.833 C 230.291 346.181,230.400 348.242,230.400 350.414 C 230.400 354.898,230.790 356.081,232.647 357.229 C 234.139 358.151,234.727 360.377,234.124 362.817 C 233.707 364.500,233.021 364.873,217.600 371.815 C 215.290 372.855,210.880 374.873,207.800 376.300 C 199.725 380.041,200.952 380.165,188.200 374.321 C 182.097 371.524,177.400 369.144,177.400 368.849 C 177.400 368.561,179.920 367.203,183.000 365.830 C 186.080 364.457,189.860 362.744,191.400 362.024 C 192.940 361.304,195.815 360.000,197.789 359.126 C 199.764 358.252,202.284 357.101,203.389 356.569 C 208.894 353.917,228.684 345.234,229.257 345.218 C 229.619 345.208,230.024 345.485,230.157 345.833 " stroke="none" fill="#184f80" fill-rule="evenodd"></path><path id="path3" d="M230.800 10.358 C 229.568 10.637,227.746 11.422,221.400 14.407 C 220.520 14.821,218.900 15.548,217.800 16.023 C 216.700 16.498,214.450 17.506,212.800 18.263 C 208.802 20.098,206.530 21.127,204.600 21.978 C 200.143 23.943,199.144 24.398,196.000 25.898 C 194.130 26.790,191.430 28.014,190.000 28.618 C 186.726 30.000,182.799 31.758,180.160 33.022 C 179.038 33.560,177.935 34.000,177.709 34.000 C 177.483 34.000,177.074 34.270,176.800 34.600 C 176.526 34.930,176.047 35.200,175.734 35.200 C 175.422 35.200,173.959 35.758,172.483 36.441 C 171.007 37.124,168.630 38.211,167.200 38.858 C 165.770 39.505,163.880 40.368,163.000 40.776 C 160.457 41.956,156.672 43.656,155.800 44.011 C 155.360 44.190,153.650 44.960,152.000 45.722 C 150.350 46.484,147.920 47.593,146.600 48.185 C 145.280 48.778,143.297 49.699,142.194 50.231 C 141.091 50.764,140.052 51.200,139.886 51.200 C 139.609 51.200,137.374 52.218,129.800 55.793 C 128.260 56.520,125.830 57.605,124.400 58.203 C 122.970 58.801,121.401 59.540,120.914 59.845 C 120.427 60.150,119.838 60.400,119.606 60.400 C 119.374 60.400,117.702 61.105,115.892 61.968 C 110.263 64.648,106.432 66.400,106.200 66.400 C 105.978 66.400,103.125 67.711,96.093 71.043 C 94.054 72.009,92.274 72.800,92.137 72.800 C 91.878 72.800,90.550 73.396,84.800 76.095 C 82.930 76.972,80.860 77.919,80.200 78.200 C 79.540 78.480,77.920 79.204,76.600 79.809 C 75.280 80.414,73.660 81.140,73.000 81.422 C 72.340 81.704,70.270 82.646,68.400 83.514 C 66.530 84.383,64.100 85.486,63.000 85.967 C 57.690 88.286,55.600 89.872,55.600 91.582 C 55.600 91.978,55.330 92.949,55.000 93.738 C 54.128 95.825,54.128 133.275,55.000 134.800 C 55.314 135.350,55.578 136.199,55.586 136.686 C 55.620 138.793,58.282 140.700,65.200 143.570 C 67.872 144.679,70.787 145.996,71.600 146.462 C 71.930 146.651,72.650 147.002,73.200 147.242 C 74.755 147.920,77.090 148.991,80.892 150.768 C 82.812 151.665,84.612 152.401,84.892 152.403 C 85.171 152.404,85.940 152.763,86.600 153.200 C 87.260 153.637,88.056 153.996,88.369 153.997 C 88.681 153.999,89.221 154.233,89.569 154.519 C 90.826 155.552,95.023 156.954,96.857 156.954 C 98.698 156.954,100.201 156.467,104.240 154.562 C 105.362 154.033,106.465 153.600,106.691 153.600 C 106.917 153.600,107.326 153.330,107.600 153.000 C 107.874 152.670,108.342 152.400,108.641 152.400 C 108.940 152.400,110.763 151.673,112.692 150.784 C 118.771 147.983,119.319 147.729,123.000 146.000 C 124.980 145.071,127.140 144.078,127.800 143.794 C 130.018 142.839,132.985 141.519,135.000 140.591 C 136.100 140.085,137.900 139.282,139.000 138.807 C 140.100 138.332,141.270 137.775,141.600 137.569 C 141.930 137.363,142.470 137.097,142.800 136.976 C 143.130 136.856,144.120 136.426,145.000 136.021 C 145.880 135.615,147.500 134.889,148.600 134.407 C 149.700 133.925,152.130 132.813,154.000 131.936 C 155.870 131.059,158.210 129.973,159.200 129.522 C 160.190 129.071,161.708 128.340,162.574 127.897 C 164.577 126.871,166.762 126.870,168.465 127.894 C 169.199 128.336,170.295 128.814,170.900 128.956 C 171.954 129.205,172.488 130.400,171.544 130.400 C 171.293 130.400,170.258 130.784,169.244 131.253 C 168.230 131.722,166.410 132.552,165.200 133.096 C 157.991 136.339,158.419 134.576,158.419 161.000 C 158.419 186.839,158.282 186.250,164.902 188.739 C 166.276 189.255,168.840 190.367,170.600 191.209 C 177.104 194.322,180.826 196.000,181.228 196.000 C 181.456 196.000,182.307 196.344,183.121 196.764 C 184.638 197.547,189.197 199.690,192.400 201.126 C 199.329 204.231,200.007 204.318,204.200 202.640 C 207.106 201.477,211.868 199.362,217.200 196.867 C 223.095 194.108,226.110 192.800,226.575 192.800 C 226.865 192.800,227.326 192.530,227.600 192.200 C 227.874 191.870,228.289 191.600,228.523 191.600 C 228.756 191.600,229.679 191.260,230.574 190.845 C 232.100 190.136,234.589 189.009,238.800 187.121 C 240.407 186.400,242.297 185.534,248.400 182.721 C 249.390 182.264,250.965 181.555,251.900 181.145 C 252.835 180.735,254.365 180.058,255.300 179.639 C 256.235 179.221,257.450 178.682,258.000 178.442 C 258.550 178.202,259.270 177.845,259.600 177.648 C 259.930 177.452,261.190 176.878,262.400 176.373 C 263.610 175.869,266.088 174.768,267.908 173.928 C 269.727 173.088,271.357 172.400,271.529 172.400 C 272.351 172.400,275.184 169.840,275.631 168.692 C 275.973 167.814,276.189 163.972,276.306 156.700 C 276.492 145.043,276.487 145.066,278.691 146.800 C 279.250 147.240,279.971 147.600,280.292 147.600 C 280.614 147.600,281.354 147.856,281.938 148.169 C 282.522 148.482,283.855 149.112,284.900 149.569 C 289.043 151.381,290.729 152.145,293.800 153.603 C 302.695 157.826,303.511 157.886,310.200 154.797 C 311.792 154.062,314.966 152.635,318.400 151.112 C 320.761 150.065,325.415 147.923,332.475 144.633 C 334.167 143.845,335.678 143.200,335.833 143.200 C 337.941 143.200,344.391 138.632,344.414 137.123 C 344.422 136.615,344.686 135.750,345.000 135.200 C 346.073 133.322,345.855 64.736,344.766 61.487 C 343.573 57.932,342.333 57.076,331.100 52.050 C 330.055 51.583,328.435 50.854,327.500 50.430 C 326.565 50.007,324.630 49.178,323.200 48.589 C 321.770 47.999,320.420 47.380,320.200 47.212 C 319.980 47.045,317.820 46.059,315.400 45.022 C 310.550 42.943,307.716 41.663,306.800 41.138 C 306.470 40.949,305.750 40.598,305.200 40.358 C 303.645 39.680,301.310 38.609,297.508 36.832 C 295.588 35.935,293.765 35.200,293.457 35.200 C 293.150 35.200,292.678 34.935,292.409 34.611 C 292.140 34.286,291.314 33.908,290.574 33.769 C 289.834 33.630,289.020 33.265,288.765 32.958 C 288.510 32.651,288.111 32.400,287.877 32.400 C 287.441 32.400,286.224 31.865,280.508 29.158 C 278.698 28.301,276.988 27.599,276.708 27.597 C 276.429 27.596,275.660 27.237,275.000 26.800 C 274.340 26.363,273.558 26.004,273.263 26.003 C 272.968 26.001,272.269 25.640,271.709 25.200 C 271.150 24.760,270.443 24.400,270.138 24.400 C 269.833 24.400,268.012 23.665,266.092 22.768 C 262.518 21.097,260.224 20.042,257.400 18.770 C 256.520 18.374,254.448 17.408,252.796 16.625 C 251.145 15.841,249.663 15.200,249.504 15.200 C 249.345 15.200,247.727 14.501,245.908 13.646 C 239.177 10.484,238.711 10.330,235.400 10.183 C 233.640 10.105,231.570 10.184,230.800 10.358 M241.000 21.104 C 243.640 22.301,249.310 24.858,253.600 26.786 C 257.890 28.715,262.660 30.877,264.200 31.592 C 265.740 32.306,269.610 34.060,272.800 35.489 C 280.413 38.900,286.883 41.828,289.556 43.073 C 290.741 43.624,294.431 45.298,297.756 46.792 C 329.767 61.174,331.948 62.200,332.268 63.033 C 332.897 64.672,332.391 64.958,315.607 72.465 C 303.413 77.920,303.146 77.981,299.400 76.228 C 298.080 75.610,291.870 72.803,285.600 69.990 C 275.538 65.476,271.340 63.577,262.300 59.450 C 261.035 58.872,258.965 57.928,257.700 57.350 C 256.435 56.773,252.004 54.786,247.853 52.933 C 243.702 51.081,239.472 49.146,238.453 48.632 C 234.943 46.864,234.579 46.898,228.716 49.535 C 225.792 50.851,218.450 54.154,212.400 56.875 C 199.381 62.731,199.600 62.616,199.600 63.604 C 199.600 64.538,199.924 64.713,210.000 69.222 C 218.916 73.212,233.732 79.888,236.400 81.118 C 237.390 81.574,241.440 83.416,245.400 85.211 C 267.847 95.384,266.913 94.283,257.000 98.890 C 238.162 107.644,236.165 108.501,234.600 108.498 C 233.153 108.495,223.135 104.256,209.600 97.922 C 208.170 97.252,203.670 95.213,199.600 93.389 C 195.530 91.566,186.980 87.701,180.600 84.800 C 174.220 81.900,168.170 79.247,167.156 78.905 L 165.312 78.283 157.956 81.595 C 153.910 83.416,146.010 86.962,140.400 89.475 C 134.790 91.988,129.030 94.596,127.600 95.271 C 126.170 95.946,121.670 97.992,117.600 99.817 C 113.530 101.642,107.590 104.340,104.400 105.813 C 97.163 109.155,96.692 109.187,91.400 106.722 C 89.200 105.696,83.391 103.063,78.490 100.869 C 64.156 94.451,64.223 95.160,77.400 89.263 C 81.800 87.293,89.630 83.755,94.800 81.399 C 99.970 79.044,107.620 75.588,111.800 73.719 C 115.980 71.851,121.470 69.369,124.000 68.204 C 126.530 67.040,135.260 63.083,143.400 59.411 C 151.540 55.740,160.090 51.866,162.400 50.802 C 164.710 49.738,169.210 47.707,172.400 46.289 C 175.590 44.870,181.170 42.356,184.800 40.702 C 200.099 33.731,232.927 18.924,233.600 18.691 C 234.563 18.357,235.904 18.795,241.000 21.104 M232.600 63.600 L 232.600 75.400 231.000 75.355 C 229.949 75.326,227.548 74.452,224.000 72.806 C 216.419 69.291,214.226 68.292,210.800 66.796 C 203.430 63.576,203.217 63.826,219.600 56.485 C 223.010 54.957,226.790 53.244,228.000 52.677 C 229.210 52.111,230.740 51.682,231.400 51.724 L 232.600 51.800 232.600 63.600 M243.267 54.244 C 245.980 55.478,249.730 57.166,251.600 57.995 C 253.470 58.824,257.610 60.709,260.800 62.182 C 263.990 63.656,268.040 65.488,269.800 66.252 C 271.560 67.016,274.530 68.343,276.400 69.199 C 278.270 70.056,283.400 72.400,287.800 74.409 C 298.506 79.296,298.492 79.275,292.802 81.905 C 278.813 88.373,270.043 92.097,268.800 92.096 C 267.871 92.095,264.456 90.734,258.645 88.047 C 253.829 85.821,249.828 84.000,249.754 84.000 C 249.132 84.000,237.997 78.541,237.300 77.895 C 236.235 76.908,235.848 53.512,236.880 52.480 C 237.619 51.741,237.990 51.843,243.267 54.244 M336.051 68.600 C 336.381 70.157,336.383 88.245,336.053 89.757 C 335.562 92.005,335.071 91.929,327.178 88.385 C 323.120 86.564,317.843 84.208,315.450 83.150 C 306.639 79.254,306.583 79.413,318.600 74.084 C 322.560 72.328,327.150 70.273,328.800 69.518 C 330.450 68.762,332.250 67.940,332.800 67.690 C 334.538 66.901,335.763 67.244,336.051 68.600 M310.159 83.451 C 316.218 86.110,325.260 90.233,329.859 92.433 C 334.167 94.494,333.467 95.631,325.800 99.022 C 322.940 100.287,319.160 101.996,317.400 102.819 C 303.050 109.536,303.791 109.404,297.200 106.409 C 294.670 105.259,289.990 103.149,286.800 101.720 C 270.546 94.437,270.701 95.201,284.239 89.072 C 305.907 79.263,302.365 80.031,310.159 83.451 M163.911 99.200 C 163.972 108.110,163.931 115.778,163.819 116.240 C 163.558 117.314,161.376 118.463,149.600 123.730 C 144.430 126.042,135.970 129.858,130.800 132.209 C 125.630 134.560,117.890 138.062,113.600 139.993 C 109.310 141.923,104.810 143.953,103.600 144.504 C 98.036 147.038,98.400 148.161,98.400 128.441 L 98.400 112.139 99.301 111.293 C 99.796 110.828,104.611 108.472,110.001 106.059 C 115.390 103.645,124.030 99.749,129.200 97.400 C 134.370 95.051,142.920 91.194,148.200 88.828 C 153.480 86.462,158.520 84.142,159.400 83.671 C 160.340 83.168,161.577 82.853,162.400 82.908 L 163.800 83.000 163.911 99.200 M173.078 84.638 C 174.795 85.429,179.170 87.423,182.800 89.069 C 186.430 90.715,190.505 92.578,191.855 93.209 C 193.206 93.840,197.706 95.878,201.855 97.737 C 210.210 101.480,211.563 102.093,220.134 106.028 C 230.424 110.753,230.581 109.999,218.135 115.647 C 190.049 128.393,191.898 127.734,188.400 126.244 C 184.335 124.513,174.229 119.852,171.000 118.219 L 167.800 116.600 167.695 100.401 C 167.638 91.491,167.677 83.976,167.783 83.701 C 168.113 82.841,169.839 83.146,173.078 84.638 M267.112 109.600 C 267.174 115.650,267.126 121.005,267.005 121.500 C 266.592 123.188,267.050 123.356,245.000 113.427 C 237.856 110.210,237.469 110.662,253.600 103.392 C 260.960 100.076,264.997 98.462,265.800 98.518 L 267.000 98.600 267.112 109.600 M336.051 99.800 C 336.387 101.383,336.464 128.960,336.138 130.931 C 335.822 132.846,335.087 133.322,326.800 136.987 C 323.390 138.494,317.723 141.063,314.207 142.694 C 307.790 145.670,305.829 146.205,305.168 145.162 C 304.652 144.347,304.697 112.940,305.216 111.971 C 305.637 111.183,309.078 109.296,313.415 107.473 C 314.727 106.922,319.760 104.663,324.600 102.454 C 334.289 98.031,335.611 97.725,336.051 99.800 M69.122 99.960 C 78.371 103.967,93.880 111.310,94.304 111.883 C 94.695 112.411,94.785 116.226,94.704 128.782 L 94.600 145.000 93.546 145.122 C 92.951 145.191,91.212 144.637,89.546 143.847 C 87.926 143.079,84.980 141.737,83.000 140.864 C 72.436 136.207,65.726 133.076,65.101 132.511 C 64.381 131.859,63.964 99.770,64.667 99.067 C 65.181 98.552,66.468 98.810,69.122 99.960 M275.522 99.963 C 276.995 100.603,280.450 102.147,283.200 103.394 C 285.950 104.642,290.450 106.666,293.200 107.892 C 295.950 109.118,298.877 110.547,299.704 111.068 L 301.209 112.016 301.104 128.508 L 301.000 145.000 299.996 145.117 C 299.424 145.184,297.184 144.392,294.796 143.279 C 292.488 142.204,286.580 139.541,281.666 137.362 C 276.752 135.183,272.297 133.004,271.766 132.519 L 270.800 131.638 270.800 115.699 C 270.800 96.748,270.491 97.778,275.522 99.963 M239.400 113.827 C 241.600 114.830,247.450 117.465,252.400 119.684 C 267.128 126.286,267.109 125.704,252.800 132.103 C 248.070 134.219,238.170 138.681,230.800 142.020 C 197.013 157.326,200.603 156.203,194.528 153.364 C 192.368 152.354,187.393 150.101,183.474 148.357 C 171.888 143.200,170.428 142.346,170.937 141.020 C 171.236 140.241,173.558 139.095,187.600 132.798 C 194.090 129.888,204.800 125.073,211.400 122.098 C 237.882 110.161,233.922 111.330,239.400 113.827 M267.104 146.496 C 267.202 162.141,267.163 163.237,266.486 163.914 C 265.802 164.598,257.346 168.513,230.400 180.619 C 223.910 183.535,215.389 187.379,211.463 189.160 C 207.538 190.942,203.929 192.400,203.443 192.400 C 201.606 192.400,201.600 192.348,201.600 175.190 L 201.600 158.939 202.505 158.090 C 203.298 157.344,208.396 154.927,220.400 149.602 C 222.270 148.773,227.040 146.619,231.000 144.817 C 234.960 143.014,241.530 140.037,245.600 138.201 C 249.670 136.366,255.520 133.689,258.600 132.254 C 262.587 130.396,264.603 129.666,265.600 129.722 L 267.000 129.800 267.104 146.496 M176.066 148.356 C 179.440 149.871,183.460 151.690,185.000 152.398 C 186.540 153.106,189.780 154.579,192.200 155.671 C 198.713 158.612,198.026 156.238,197.904 175.366 L 197.800 191.800 196.577 191.749 C 195.905 191.722,193.385 190.798,190.977 189.697 C 188.570 188.595,182.497 185.847,177.482 183.588 C 172.368 181.285,168.197 179.168,167.982 178.767 C 167.551 177.962,167.440 146.293,167.867 145.867 C 168.509 145.224,170.315 145.772,176.066 148.356 M60.200 151.365 C 59.540 151.658,58.550 152.385,58.000 152.981 L 57.000 154.064 57.000 168.026 L 57.000 181.987 58.507 183.493 C 60.836 185.822,64.160 185.748,66.429 183.315 L 68.000 181.631 68.000 168.046 L 68.000 154.461 66.919 153.176 C 65.079 150.990,62.567 150.313,60.200 151.365 M335.800 151.169 C 335.360 151.368,334.370 152.066,333.600 152.720 L 332.200 153.911 332.077 162.436 C 331.938 172.024,331.971 172.280,333.526 173.984 C 336.277 176.995,341.434 176.192,342.825 172.535 C 343.493 170.776,343.296 155.319,342.587 153.860 C 341.468 151.562,337.989 150.182,335.800 151.169 M94.130 162.184 C 91.232 163.444,91.400 161.326,91.400 196.622 C 91.400 231.113,91.285 229.421,93.740 231.103 C 96.045 232.682,98.529 232.376,100.653 230.253 L 102.400 228.505 102.399 197.153 C 102.399 168.105,102.347 165.697,101.699 164.400 C 100.467 161.934,97.023 160.925,94.130 162.184 M301.200 161.882 C 300.267 162.223,298.782 163.689,298.162 164.880 C 297.256 166.621,297.338 208.326,298.251 210.250 C 300.217 214.393,306.476 214.412,308.305 210.281 C 309.188 208.286,309.000 166.202,308.099 164.400 C 307.013 162.225,303.635 160.992,301.200 161.882 M334.908 180.993 C 331.008 182.688,331.067 189.382,334.996 191.024 C 338.052 192.301,341.640 191.360,342.614 189.027 C 345.001 183.316,340.458 178.580,334.908 180.993 M60.457 190.052 C 57.630 190.573,56.458 192.843,57.033 196.684 C 57.772 201.611,65.154 202.625,67.537 198.126 C 69.993 193.490,66.070 189.017,60.457 190.052 M161.349 194.367 C 158.456 195.681,157.614 198.322,157.606 206.113 C 157.596 215.455,158.877 218.000,163.590 218.000 C 168.858 218.000,169.600 216.521,169.600 206.027 C 169.600 196.697,169.409 196.033,166.316 194.593 C 163.786 193.415,163.477 193.401,161.349 194.367 M299.883 219.500 C 296.330 222.204,296.536 235.385,300.168 237.669 C 302.840 239.350,307.375 238.077,308.355 235.372 C 308.887 233.902,308.956 222.863,308.442 221.509 C 307.336 218.601,302.543 217.476,299.883 219.500 M160.317 224.506 C 158.636 225.973,158.145 227.703,158.582 230.620 C 159.380 235.940,167.654 236.119,169.232 230.850 C 170.906 225.263,164.596 220.772,160.317 224.506 M95.000 237.191 C 91.698 238.594,91.016 240.718,91.267 248.799 C 91.519 256.872,96.361 260.042,101.017 255.183 L 102.200 253.947 102.200 246.968 L 102.200 239.989 100.919 238.792 C 98.933 236.936,96.896 236.385,95.000 237.191 M230.400 239.146 C 229.630 239.546,228.190 240.244,227.200 240.696 C 223.303 242.477,220.563 243.700,219.800 244.000 C 219.360 244.173,218.010 244.768,216.800 245.322 C 215.590 245.877,213.160 246.988,211.400 247.792 C 209.640 248.595,207.480 249.582,206.600 249.985 C 205.720 250.387,204.100 251.111,203.000 251.593 C 199.762 253.013,196.784 254.398,193.859 255.844 C 192.351 256.590,190.953 257.200,190.751 257.200 C 190.549 257.200,188.812 257.935,186.892 258.832 C 184.971 259.730,182.680 260.801,181.800 261.212 C 180.920 261.623,178.650 262.688,176.755 263.580 C 174.860 264.471,173.191 265.200,173.047 265.200 C 172.902 265.200,171.212 265.930,169.292 266.822 C 167.371 267.714,165.260 268.686,164.600 268.981 C 163.940 269.277,161.863 270.257,159.985 271.160 C 158.106 272.062,156.444 272.800,156.292 272.800 C 156.037 272.800,151.211 274.971,147.400 276.800 C 144.308 278.284,139.774 280.321,137.200 281.383 C 135.770 281.973,133.070 283.176,131.200 284.058 C 129.330 284.939,127.260 285.902,126.600 286.198 C 125.940 286.494,123.829 287.470,121.908 288.368 C 119.988 289.266,118.247 290.000,118.041 290.000 C 117.834 290.000,116.165 290.742,114.332 291.648 C 112.500 292.555,110.460 293.535,109.800 293.826 C 109.140 294.117,106.840 295.175,104.689 296.178 C 102.538 297.180,100.617 298.000,100.421 298.000 C 100.225 298.000,99.555 298.274,98.932 298.608 C 98.310 298.942,97.350 299.392,96.800 299.607 C 96.250 299.822,95.530 300.150,95.200 300.336 C 94.870 300.522,93.700 301.079,92.600 301.573 C 88.576 303.382,87.330 303.951,83.800 305.588 C 81.820 306.507,79.390 307.627,78.400 308.078 C 77.410 308.529,75.934 309.235,75.121 309.649 C 74.307 310.062,73.450 310.400,73.216 310.400 C 72.982 310.400,70.588 311.450,67.895 312.734 C 65.203 314.018,61.878 315.585,60.506 316.217 C 55.441 318.552,54.623 324.086,58.874 327.253 C 60.124 328.184,61.931 329.104,66.600 331.185 C 67.700 331.675,69.410 332.446,70.400 332.897 C 71.390 333.348,72.920 334.041,73.800 334.438 C 74.680 334.834,76.950 335.888,78.845 336.780 C 80.740 337.671,82.409 338.400,82.553 338.400 C 82.810 338.400,89.119 341.279,90.493 342.023 C 95.490 344.729,98.009 344.582,105.045 341.172 C 106.830 340.308,108.409 339.600,108.553 339.600 C 108.698 339.600,110.388 338.866,112.308 337.968 C 114.229 337.070,116.520 336.011,117.400 335.614 C 118.280 335.217,120.402 334.241,122.115 333.446 C 123.829 332.651,125.317 332.000,125.423 332.000 C 125.530 332.000,127.098 331.305,128.908 330.455 C 130.719 329.605,132.650 328.707,133.200 328.458 C 133.750 328.209,134.470 327.845,134.800 327.648 C 135.130 327.452,136.390 326.878,137.600 326.374 C 138.810 325.870,140.880 324.969,142.200 324.372 C 143.520 323.775,145.680 322.803,147.000 322.212 C 148.320 321.621,150.390 320.681,151.600 320.123 C 152.810 319.566,154.340 318.886,155.000 318.613 C 155.660 318.339,157.010 317.742,158.000 317.285 C 166.264 313.469,165.553 313.580,169.600 315.460 C 170.810 316.022,172.565 316.823,173.500 317.241 C 177.436 318.999,179.034 319.738,179.600 320.062 C 179.930 320.251,180.470 320.516,180.800 320.651 C 183.062 321.577,186.150 322.943,190.600 324.988 C 191.920 325.594,193.540 326.325,194.200 326.610 C 194.860 326.896,196.570 327.672,198.000 328.335 C 199.430 328.997,202.263 330.269,204.296 331.160 C 207.836 332.712,211.322 334.288,215.200 336.090 C 216.190 336.549,217.259 337.045,217.576 337.191 C 218.663 337.693,218.362 338.201,216.444 339.100 C 215.388 339.595,214.383 340.000,214.210 340.000 C 214.038 340.000,212.165 340.826,210.048 341.836 C 207.932 342.846,205.840 343.818,205.400 343.996 C 204.960 344.175,203.070 345.046,201.200 345.933 C 199.330 346.819,196.630 348.022,195.200 348.605 C 192.559 349.683,190.879 350.439,184.800 353.289 C 181.440 354.865,177.709 356.581,174.600 357.981 C 173.720 358.377,171.650 359.332,170.000 360.102 C 168.350 360.873,166.550 361.639,166.000 361.804 C 165.450 361.970,164.550 362.412,164.000 362.787 C 163.450 363.163,162.695 363.579,162.323 363.713 C 160.866 364.238,160.199 366.014,160.211 369.337 C 160.226 373.251,160.774 373.879,166.200 376.197 C 167.822 376.890,173.258 379.348,178.400 381.715 C 180.050 382.474,182.570 383.586,184.000 384.185 C 185.430 384.784,186.870 385.439,187.200 385.640 C 187.530 385.841,188.070 386.117,188.400 386.253 C 190.303 387.040,193.538 388.511,194.400 388.981 C 197.858 390.867,202.289 390.883,206.000 389.024 C 206.550 388.748,207.810 388.153,208.800 387.702 C 212.627 385.958,215.091 384.839,217.400 383.798 C 218.720 383.203,220.970 382.180,222.400 381.523 C 225.549 380.078,227.837 379.047,230.100 378.054 C 232.985 376.788,234.456 376.121,238.600 374.195 C 240.800 373.172,243.140 372.106,243.800 371.826 C 244.460 371.545,245.810 370.947,246.800 370.496 C 247.790 370.045,249.500 369.276,250.600 368.785 C 251.700 368.295,254.130 367.185,256.000 366.318 C 259.653 364.625,261.699 363.692,264.700 362.351 C 265.745 361.885,267.230 361.191,268.000 360.810 C 268.770 360.428,269.850 359.999,270.400 359.856 C 272.932 359.196,275.814 355.207,275.492 352.807 C 275.055 349.552,272.289 347.436,264.000 344.017 C 262.790 343.518,261.530 342.949,261.200 342.752 C 260.870 342.556,260.330 342.283,260.000 342.147 C 259.670 342.010,258.500 341.501,257.400 341.014 C 256.300 340.528,254.368 339.696,253.107 339.165 C 250.849 338.214,250.490 337.732,251.624 337.173 C 252.368 336.806,256.649 334.862,258.200 334.187 C 258.860 333.899,260.971 332.930,262.892 332.032 C 264.812 331.134,266.617 330.400,266.903 330.400 C 267.188 330.400,267.807 330.130,268.279 329.800 C 269.016 329.283,269.292 329.276,270.268 329.751 C 270.890 330.054,272.210 330.668,273.200 331.116 C 274.190 331.563,276.170 332.468,277.600 333.125 C 283.473 335.826,286.738 337.294,290.600 338.971 C 291.260 339.257,292.790 339.948,294.000 340.506 C 295.210 341.063,297.280 342.017,298.600 342.624 C 302.743 344.530,304.473 344.447,309.600 342.095 C 313.297 340.398,314.915 339.676,317.000 338.792 C 318.100 338.325,319.270 337.775,319.600 337.569 C 319.930 337.363,320.470 337.097,320.800 336.976 C 321.130 336.856,322.120 336.407,323.000 335.978 C 323.880 335.549,324.739 335.198,324.908 335.199 C 325.242 335.200,331.273 332.432,333.679 331.174 C 334.493 330.748,335.414 330.400,335.725 330.400 C 336.037 330.400,336.750 330.040,337.309 329.600 C 337.869 329.160,338.577 328.800,338.884 328.800 C 339.997 328.800,342.652 326.413,343.559 324.596 C 345.245 321.220,343.633 317.952,339.292 315.949 C 337.812 315.266,334.768 313.828,332.528 312.754 C 330.289 311.679,328.311 310.800,328.134 310.800 C 327.957 310.800,326.819 310.327,325.606 309.750 C 324.393 309.172,322.552 308.317,321.516 307.850 C 319.364 306.880,319.251 306.689,320.500 306.137 C 320.995 305.918,322.210 305.364,323.200 304.907 C 324.190 304.450,326.080 303.597,327.400 303.012 C 328.720 302.427,330.340 301.708,331.000 301.415 C 331.660 301.121,333.737 300.143,335.615 299.240 C 337.494 298.338,339.235 297.600,339.485 297.600 C 341.024 297.600,344.000 293.244,344.000 290.991 C 344.000 289.303,342.107 286.017,340.885 285.585 C 340.288 285.373,339.530 285.020,339.200 284.799 C 338.870 284.579,338.150 284.212,337.600 283.985 C 337.050 283.758,335.880 283.226,335.000 282.803 C 332.912 281.798,328.859 279.993,325.600 278.618 C 324.170 278.014,321.470 276.798,319.600 275.915 C 317.730 275.032,315.390 273.945,314.400 273.500 C 310.103 271.568,309.242 271.177,306.400 269.864 C 304.750 269.102,302.320 267.995,301.000 267.403 C 299.680 266.812,297.835 265.984,296.900 265.564 C 295.965 265.144,294.435 264.460,293.500 264.045 C 292.565 263.629,290.765 262.819,289.500 262.245 C 288.235 261.670,286.165 260.732,284.900 260.160 C 283.635 259.588,281.610 258.669,280.400 258.119 C 279.190 257.569,277.480 256.796,276.600 256.401 C 275.720 256.007,273.650 255.053,272.000 254.283 C 270.350 253.512,268.100 252.483,267.000 251.997 C 265.900 251.510,264.010 250.664,262.800 250.116 C 261.590 249.568,260.060 248.896,259.400 248.623 C 258.740 248.350,257.210 247.658,256.000 247.085 C 254.790 246.512,252.720 245.566,251.400 244.984 C 250.080 244.402,248.010 243.474,246.800 242.922 C 245.590 242.371,243.700 241.512,242.600 241.013 C 241.500 240.514,239.770 239.722,238.756 239.253 C 236.380 238.154,232.408 238.103,230.400 239.146 M231.186 250.774 C 231.414 251.199,231.600 253.637,231.600 256.192 C 231.600 261.581,232.220 262.800,234.959 262.800 C 237.169 262.800,237.600 261.811,237.600 256.737 C 237.600 250.247,238.186 249.458,241.682 251.242 C 242.589 251.705,246.857 253.666,251.166 255.600 C 255.475 257.535,264.040 261.402,270.200 264.194 C 276.360 266.986,284.730 270.767,288.800 272.595 C 292.870 274.423,297.460 276.505,299.000 277.223 C 300.540 277.940,305.490 280.189,310.000 282.220 C 329.015 290.783,327.600 290.061,327.600 291.199 C 327.600 291.776,320.819 295.600,319.796 295.600 C 319.687 295.600,316.943 296.832,313.699 298.337 C 310.454 299.842,306.793 301.484,305.561 301.985 L 303.323 302.896 299.561 301.284 C 297.493 300.397,294.450 299.045,292.800 298.279 C 291.150 297.513,288.360 296.258,286.600 295.490 C 284.840 294.723,279.170 292.163,274.000 289.802 C 268.830 287.440,260.820 283.802,256.200 281.717 C 233.104 271.291,235.512 271.970,230.118 274.356 C 226.766 275.838,208.020 284.352,201.544 287.333 C 197.081 289.387,197.200 289.068,197.200 299.000 C 197.200 308.467,197.327 308.963,199.882 309.442 C 202.476 309.928,203.200 308.555,203.200 303.151 C 203.200 296.184,203.224 296.173,210.840 299.640 C 220.243 303.920,228.691 307.742,240.600 313.104 C 257.859 320.875,258.401 321.136,258.665 321.826 C 259.038 322.796,258.209 323.366,253.000 325.726 C 250.360 326.922,245.370 329.182,241.910 330.750 C 238.451 332.317,235.156 333.600,234.588 333.600 C 233.681 333.600,224.114 329.467,207.000 321.683 C 204.140 320.383,201.080 319.086,200.200 318.801 C 198.532 318.262,193.999 316.307,188.698 313.842 C 186.992 313.049,185.525 312.400,185.438 312.400 C 185.351 312.400,183.726 311.675,181.826 310.790 C 172.272 306.334,166.693 304.000,165.599 304.000 C 164.502 304.000,158.741 306.468,143.200 313.597 C 140.230 314.959,136.450 316.667,134.800 317.391 C 133.150 318.115,127.570 320.634,122.400 322.989 C 102.112 332.232,97.979 334.000,96.695 333.982 C 95.090 333.959,72.468 323.693,71.847 322.706 C 71.151 321.597,72.382 320.779,79.400 317.685 C 82.920 316.133,87.420 314.112,89.400 313.194 C 91.380 312.276,96.330 310.029,100.400 308.200 C 110.965 303.453,124.129 297.507,127.400 296.005 C 128.940 295.298,134.610 292.734,140.000 290.308 C 145.390 287.881,152.590 284.637,156.000 283.097 C 159.410 281.558,164.090 279.446,166.400 278.405 C 168.710 277.363,176.180 273.987,183.000 270.903 C 189.820 267.818,199.270 263.546,204.000 261.410 C 208.730 259.273,213.950 256.906,215.600 256.149 C 229.995 249.544,230.445 249.389,231.186 250.774 M236.000 283.341 C 237.978 284.089,240.164 285.054,243.400 286.606 C 244.940 287.345,247.370 288.430,248.800 289.017 C 250.230 289.603,251.580 290.220,251.800 290.388 C 252.020 290.555,254.180 291.541,256.600 292.578 C 261.450 294.657,264.284 295.937,265.200 296.462 C 265.530 296.651,266.250 297.002,266.800 297.242 C 267.350 297.482,268.520 298.004,269.400 298.403 C 271.248 299.240,273.749 300.351,276.600 301.600 C 277.700 302.082,279.320 302.810,280.200 303.217 C 281.080 303.625,282.070 304.056,282.400 304.176 C 282.730 304.297,283.270 304.572,283.600 304.788 C 283.930 305.004,284.875 305.446,285.700 305.770 C 287.502 306.478,287.616 307.045,286.028 307.394 C 285.383 307.536,284.641 307.910,284.379 308.226 C 284.117 308.542,283.645 308.800,283.330 308.800 C 283.016 308.800,282.093 309.138,281.279 309.551 C 280.466 309.965,278.990 310.660,278.000 311.097 C 275.267 312.302,272.321 313.661,271.138 314.261 C 269.725 314.978,267.419 314.946,266.800 314.200 C 266.526 313.870,266.034 313.600,265.705 313.600 C 265.377 313.600,264.454 313.269,263.654 312.865 C 261.503 311.778,258.881 310.596,256.400 309.596 C 255.190 309.108,253.930 308.548,253.600 308.352 C 253.270 308.155,252.550 307.798,252.000 307.558 C 251.006 307.124,250.534 306.909,244.800 304.268 C 243.150 303.508,240.945 302.507,239.900 302.043 C 236.147 300.378,230.473 297.801,226.600 296.004 C 222.469 294.088,220.316 293.200,219.798 293.200 C 219.523 293.200,219.083 292.942,218.821 292.626 C 218.559 292.310,217.817 291.936,217.172 291.794 C 216.528 291.652,216.000 291.391,216.000 291.214 C 216.000 290.914,218.416 289.600,218.969 289.600 C 219.105 289.600,220.788 288.866,222.708 287.968 C 228.825 285.109,233.884 282.887,234.400 282.833 C 234.510 282.822,235.230 283.050,236.000 283.341 M299.777 312.889 C 300.251 313.565,300.400 314.850,300.400 318.256 C 300.400 323.426,300.502 323.826,302.029 324.615 C 305.216 326.263,306.385 324.911,306.447 319.500 C 306.540 311.429,306.155 311.520,317.708 316.826 C 329.769 322.365,329.606 322.155,323.900 324.803 C 314.532 329.149,303.463 334.000,302.913 334.000 C 301.716 334.000,278.760 323.473,278.371 322.746 C 277.756 321.596,278.898 320.796,285.023 318.087 C 288.090 316.731,292.400 314.807,294.600 313.812 C 299.269 311.701,298.981 311.753,299.777 312.889 M230.977 344.089 C 231.452 344.767,231.600 346.057,231.600 349.520 C 231.600 354.006,231.614 354.076,232.769 355.231 C 235.681 358.142,237.600 356.133,237.600 350.172 C 237.600 343.066,237.837 342.937,245.003 346.152 C 261.550 353.577,261.241 353.176,253.200 356.798 C 242.524 361.607,240.233 362.674,233.000 366.203 C 228.820 368.242,224.140 370.455,222.600 371.119 C 221.060 371.783,217.550 373.357,214.800 374.617 C 204.948 379.130,200.986 380.793,200.076 380.797 C 198.898 380.801,175.967 370.506,175.301 369.673 C 174.449 368.609,175.559 367.611,179.621 365.792 C 181.699 364.861,187.450 362.259,192.400 360.010 C 197.350 357.760,206.530 353.619,212.800 350.806 C 219.070 347.994,225.190 345.245,226.400 344.697 C 230.285 342.940,230.182 342.953,230.977 344.089 " stroke="none" fill="#040404" fill-rule="evenodd"></path></g></svg>